<?xml version="1.0" encoding="utf-8"?>
<!-- Generator: Adobe Illustrator 25.2.1, SVG Export Plug-In . SVG Version: 6.00 Build 0)  -->
<svg version="1.1" id="Layer_1" xmlns="http://www.w3.org/2000/svg" xmlns:xlink="http://www.w3.org/1999/xlink" x="0px" y="0px"
	 viewBox="0 0 122 122" style="enable-background:new 0 0 122 122;" xml:space="preserve">
<style type="text/css">
	.st0{fill:#0077C8;}
</style>
<path class="st0" d="M122,57.4V32.3c0-5.5-1.9-8.7-8.6-8.7H91.6V13.3c0-6.1-3.6-11-10.9-11h-39c-6,0-11,4-11,10.9v10.4H8.9
	c-5.6,0-8.6,3.1-8.6,8.6v78.5c0,5.5,3.6,8.6,8.7,8.6h104.4c5.9,0,8.7-3.7,8.7-8.6V64.8h-8.6v42.9c0,1.7-1.1,3-3,3H11.9
	c-1.8,0-3-1.2-3-3V35.3c0-2.2,1.2-3,3-3h98.4c1.9,0,3,1.4,3,3.1v20.9L122,57.4z M39.3,13.9c0-1.8,1.1-3,3-3h37.5c1.8,0,3,1.2,3,3
	v9.6H39.3V13.9z M56.8,87.3l0-11.5H45.3v-8.6h11.5V55.7h8.6v11.5h11.5v8.6H65.4v11.5H56.8z"/>
</svg>
