<?xml version="1.0" encoding="utf-8"?>
<!-- Generator: Adobe Illustrator 25.2.1, SVG Export Plug-In . SVG Version: 6.00 Build 0)  -->
<svg version="1.1" id="Layer_1" xmlns="http://www.w3.org/2000/svg" xmlns:xlink="http://www.w3.org/1999/xlink" x="0px" y="0px"
	 viewBox="0 0 122 122" style="enable-background:new 0 0 122 122;" xml:space="preserve">
<style type="text/css">
	.st0{fill:#0077C8;}
</style>
<g id="Layer_2_1_">
	<g id="Layer_1-2">
		<path class="st0" d="M113.3,85.7V102H78.4V69.7l29.3-21.3c3.5-2.5,5.4-7.2,1.9-12.1L98,20.2l-7,5.1l9.9,13.6c1,1.2,0.9,3-0.3,4
			c-0.1,0.1-0.2,0.2-0.4,0.3L41.2,86c-1.8,1.3-3.1,0.9-4.3-0.7L17.2,58.1c-1-1.2-0.9-3,0.3-4c0.1-0.1,0.2-0.2,0.4-0.3l59-42.9
			c1.5-1.1,2.9-1.2,4.3,0.7l5.6,7.8l7-5.1L86.3,4.1C82.9-0.6,79-1.3,74.2,2.2L10.3,48.7C4.9,52.6,5,56.2,8.4,60.8l2.4,3.2l-8,5.8
			c-3.6,2.6-3.2,6-1.3,8.5L13,94.1c2,2.7,5.8,3.3,8.5,1.4l0,0l8-5.8l2.4,3.2c3,4.2,7.9,5,12.1,1.9L69.9,76v26l5.2,8.7h38.4V122
			l8.7-1.1V85.7H113.3z M20.3,85.5c-1.1,0.8-2.6,0.5-3.4-0.5l0,0l-5.6-7.7c-0.8-1-0.6-2.5,0.4-3.4c0,0,0.1,0,0.1-0.1l4-2.9l8.5,11.7
			L20.3,85.5z"/>
	</g>
</g>
</svg>
