<?xml version="1.0" encoding="utf-8"?>
<!-- Generator: Adobe Illustrator 25.2.1, SVG Export Plug-In . SVG Version: 6.00 Build 0)  -->
<svg version="1.1" id="Layer_1" xmlns="http://www.w3.org/2000/svg" xmlns:xlink="http://www.w3.org/1999/xlink" x="0px" y="0px"
	 viewBox="0 0 122 122" style="enable-background:new 0 0 122 122;" xml:space="preserve">
<style type="text/css">
	.st0{fill:#0077C8;}
</style>
<g>
	<path class="st0" d="M54.7,89.6h-8.2V1l-8.8,2.2v86.5h-8.2c-6.3,0-11.5,5.1-11.5,11.5v7.5v3.8v9.6h7.7v-9.6h5.8v9.6h7.7v-9.6H45
		v9.6h7.7v-9.6h5.9v9.6h7.7v-9.6v-3.8v-7.5C66.2,94.8,61.1,89.6,54.7,89.6z M57.4,104.8H26.8v-3.7c0-0.9,0.4-1.6,0.8-1.9
		c0.4-0.4,1-0.8,1.9-0.8h25.2c0.9,0,1.6,0.4,1.9,0.8c0.4,0.4,0.8,1,0.8,1.9V104.8z"/>
	<path class="st0" d="M73,117.8h19.6c1.3,0,2.6-0.3,3.9-0.9c1.1-0.6,2.1-1.4,2.9-2.3c1.5-1.8,2.4-4.2,2.5-6.8l2-49.6h0.1v-0.8
		c0-0.3,0-0.6,0-0.8l0-0.2h0c-0.1-2.8-0.7-5.5-1.8-8.1c-1.1-2.5-2.5-4.7-4.3-6.7l-6.2,6.2c2,2.3,3.3,5.3,3.6,8.6H63.8
		c0.5-7.6,6.9-13.7,14.7-13.7h2c1.6,0,3.2,0.3,4.6,0.7l6.6-6.6c-0.7-0.4-1.4-0.7-2.1-1c-2.9-1.2-6-1.9-9.1-1.9h-2
		c-3.2,0-6.2,0.6-9.1,1.9c-2.8,1.2-5.3,2.9-7.5,5c-2.2,2.2-3.8,4.7-5,7.5c-1.1,2.6-1.7,5.3-1.8,8.1h0l0,0.3c0,0.2,0,0.4,0,0.7V58
		h0.1L56,82.8c0,0,2.2,0.2,4.4,1c2.2,0.8,4.5,2.7,4.5,2.7l-0.8-21.4h30.7l-1.7,42.3c0,1-0.8,1.7-1.8,1.7H73V117.8z"/>
</g>
</svg>
