<?xml version="1.0" encoding="utf-8"?>
<!-- Generator: Adobe Illustrator 25.2.1, SVG Export Plug-In . SVG Version: 6.00 Build 0)  -->
<svg version="1.1" id="Layer_3" xmlns="http://www.w3.org/2000/svg" xmlns:xlink="http://www.w3.org/1999/xlink" x="0px" y="0px"
	 viewBox="0 0 122 122" style="enable-background:new 0 0 122 122;" xml:space="preserve">
<style type="text/css">
	.st0{fill:#0077C8;}
</style>
<g>
	<path class="st0" d="M92.4,70.6c-5.2-1.8-6.7-3.8-6.7-9.3c0-3.5-0.1-7.1,0.1-10.6c0.2-4.2,2.4-7,6.5-7.8c2.2-0.4,4.5-0.6,6.7-0.3
		c4.3,0.5,7.2,3.1,7.6,7.4c0.4,4.5,0.2,9.1,0,13.7c-0.2,3.1-2.1,5.2-5,6.2c-1.5,0.5-2,1.3-1.8,2.8c0.1,1.3,0.1,2.6,0,3.9
		c-0.2,3.6-2.1,5.6-5.7,5.8c-2.8,0.2-5.6,0.1-8.4,0.1c-1.3,0-2,0.3-2.3,1.8c-0.9,5.4-1.9,10.7-2.8,16.1c-0.7,4.2,0.3,5.4,4.6,5.4
		c7.5,0.1,14.9,0.1,22.4,0c4.2,0,5.1-1.3,4.4-5.4c-1.4-8.1-2.9-16.3-4.3-24.4c-0.1-0.5-0.1-1.1-0.2-1.9c2.9,0,5.6,0,8.6,0
		c1.3,7.5,2.7,15,3.9,22.5c0.6,3.3,1.2,6.6,1.5,10c0.3,3.8-1.5,6-5.2,7c-1.5,0.4-3.2,0.6-4.8,0.6c-10.4,0-20.9,0-31.3,0
		c-1.4,0-2.9-0.3-4.2-0.7c-3.7-1.2-5.6-4.1-4.9-8c1.7-10,3.5-19.9,5.2-29.8c0.2-1.3,0.9-1.7,2.1-1.6c3.7,0.1,7.4,0,11.1,0
		C92.3,74,92.6,73.7,92.4,70.6z M99.5,56.8C99.5,56.8,99.5,56.8,99.5,56.8c0-1.3,0-2.6,0-3.8c-0.1-2.1-1.3-3-3.2-3c-2,0-3.2,1-3.2,3
		c0,2.3-0.1,4.6,0,6.9c0,2.5,1,3.4,3.3,3.4c2.2,0,3.1-0.9,3.2-3.5C99.6,58.9,99.5,57.9,99.5,56.8z"/>
	<path class="st0" d="M6,74c4.4,0,8.6,0,12.7,0c2.8,0,3.1-0.4,2.9-3.5c-5.5-1.2-6.9-5.1-6.7-10.2c0.1-3,0-5.9,0-8.9
		c0.1-4.8,2.4-7.7,7.1-8.6c2.1-0.4,4.3-0.4,6.4-0.1c4.7,0.8,7.3,3.9,7.5,8.6c0.1,3.7,0.1,7.4,0,11.1C36,66,34.4,68.8,30.8,70
		c-1.5,0.5-1.7,1.4-1.7,2.7c0,1.4,0,2.9-0.2,4.3c-0.4,3.6-2.2,5.3-5.8,5.5c-2.7,0.1-5.5,0.2-8.2,0.1c-1.5-0.1-2.2,0.4-2.4,1.9
		c-0.9,5.5-2,11.1-2.9,16.6c-0.5,3.4,0.5,4.8,3.9,4.8c7.9,0.1,15.9,0.1,23.8,0c3.5,0,4.5-1.5,3.9-5.2c-1.5-8.4-3-16.7-4.5-25.1
		c-0.1-0.4-0.1-0.8-0.1-1.3c2.8,0,5.5,0,8.5,0c0.8,4.1,1.6,8.4,2.3,12.6c1,5.9,2.2,11.8,3.1,17.8c0.9,6-1.6,9.5-7.7,9.6
		c-11.6,0.3-23.1,0.3-34.7,0c-6.1-0.2-8.7-3.6-7.7-9.6c1.5-9.7,3.3-19.3,5-28.9C5.6,75.2,5.8,74.7,6,74z M22.2,56.7
		C22.2,56.7,22.2,56.7,22.2,56.7c0,1.2,0,2.4,0,3.6c0,2,1.1,3.1,3.1,3.2c2,0.1,3.3-0.8,3.4-2.8c0.1-2.5,0.1-5.1,0-7.7
		c-0.1-2-1.3-3-3.3-3c-2,0-3.1,1.1-3.2,3.1C22.2,54.3,22.2,55.5,22.2,56.7z"/>
	<path class="st0" d="M71.6,34.4c3-2.8,6.1-5.6,9.4-8.7c-13.8,0-27,0-40.4,0c3.1,3,6,5.9,9,8.8c-0.2,0.3-0.3,0.6-0.5,0.8
		c-3.6,0-7.3,0-10.9,0c-0.4,0-0.9-0.4-1.2-0.7c-2.8-2.8-5.7-5.6-8.4-8.6c-2.8-3-2.9-6.2-0.2-9.3c2.7-3.1,5.6-5.9,8.5-8.8
		c0.4-0.4,1.1-0.7,1.7-0.7c3.4-0.1,6.9,0,10.5,0c-3.2,3.1-6.2,6-9.2,8.9c0.2,0.3,0.4,0.5,0.5,0.8c13.5,0,26.9,0,41,0
		c-3.4-3.2-6.4-6-9.5-8.9c0.1-0.2,0.3-0.5,0.4-0.7c3.6,0,7.3,0,10.9,0c0.3,0,0.6,0.2,0.8,0.4c3.1,3.2,6.4,6.3,9.3,9.7
		c1.9,2.2,1.9,5.6,0,7.8c-2.9,3.4-6.2,6.5-9.3,9.7c-0.3,0.3-0.7,0.4-1.1,0.4c-3.6,0-7.2,0-10.7,0C72,35,71.8,34.7,71.6,34.4z"/>
	<path class="st0" d="M77.5,60.2c-1.7,0.2-3.1,0.3-4.7,0.5c0-2.6,0-5,0-7.5c-0.2-0.1-0.3-0.2-0.5-0.2c-0.7,1-1.4,2-2.1,2.9
		C68.7,58,67,58,65.5,55.8c-0.6-0.9-1.2-1.8-2.2-3.3c0,2.9,0,5.2,0,7.6c-1.5,0-2.8,0-4.4,0c0-5.3,0-10.7,0-16.1
		c3.8-1,4.4-0.7,6.5,2.4c0.9,1.3,1.8,2.7,2.8,4.2c1-1.5,2.1-2.7,2.7-4.1c1.4-3.1,3.8-3.2,6.6-2.5C77.5,49.3,77.5,54.6,77.5,60.2z"/>
	<path class="st0" d="M48.5,56.5c2.8,0,5,0,7.3,0c0.1,1.2,0.3,2.3,0.4,3.6c-4.4,0-8.6,0-12.9,0c-0.8-3.3-0.2-5.2,2.7-7.1
		c1.3-0.8,2.7-1.5,3.8-2.4c0.6-0.5,1-1.6,0.8-2.2c-0.2-0.6-1.3-1.2-2-1.1c-1.6,0.2-3.1,0.8-4.6,1.2c-1.3-3.2-1-4,2.4-4.6
		c1.8-0.4,3.9-0.4,5.7,0.1c4.2,1,5.4,5.6,2.2,8.6C52.8,53.9,50.8,54.9,48.5,56.5z"/>
</g>
</svg>
