<?xml version="1.0" encoding="utf-8"?>
<!-- Generator: Adobe Illustrator 25.2.1, SVG Export Plug-In . SVG Version: 6.00 Build 0)  -->
<svg version="1.1" id="Layer_1" xmlns="http://www.w3.org/2000/svg" xmlns:xlink="http://www.w3.org/1999/xlink" x="0px" y="0px"
	 viewBox="0 0 122 122" style="enable-background:new 0 0 122 122;" xml:space="preserve">
<style type="text/css">
	.st0{fill:#0077C8;}
</style>
<g>
	
		<rect x="20.6" y="44.4" transform="matrix(0.7071 -0.7071 0.7071 0.7071 -27.2645 32.1645)" class="st0" width="9.1" height="9.1"/>
	<path class="st0" d="M91.9,59.5v50.3c0,1.7-1.4,3.1-3.1,3.1H51.5c-1.7,0-3.1-1.4-3.1-3.1V52c0-6,4.9-10.8,10.8-10.8H81
		c5.4,0,9.9,4,10.7,9.2h9.2c-0.2-2.1-0.7-4.2-1.5-6.1c-1-2.4-2.4-4.5-4.3-6.3c-1.8-1.8-4-3.3-6.3-4.3c-2.5-1-5.1-1.6-7.8-1.6h-5.5V8
		h8.6v-9.1H57.8V8h8.6v7.2H38.1c-2.3,0-4.6,0.5-6.8,1.4c-2.1,0.9-3.9,2.1-5.5,3.7c-1.6,1.6-2.8,3.5-3.7,5.5
		c-0.9,2.1-1.4,4.4-1.4,6.8v6h9.1v-6c0-4.6,3.7-8.3,8.3-8.3h28.3v7.8h-7.2c-2.7,0-5.3,0.5-7.8,1.6c-2.4,1-4.5,2.4-6.3,4.3
		c-1.8,1.8-3.3,4-4.3,6.3c-1,2.5-1.6,5.1-1.6,7.8v57.7c0,1.7,0.3,3.3,1,4.8c0.6,1.5,1.5,2.8,2.6,3.9c1.1,1.1,2.4,2,3.9,2.6
		c1.5,0.6,3.1,1,4.8,1h37.2c1.7,0,3.3-0.3,4.8-1c1.5-0.6,2.8-1.5,3.9-2.6c1.1-1.1,2-2.4,2.6-3.9c0.6-1.5,1-3.1,1-4.8V59.5H91.9z"/>
</g>
</svg>
